<?xml version="1.0" standalone="no"?>
<!DOCTYPE svg PUBLIC "-//W3C//DTD SVG 20010904//EN"
 "http://www.w3.org/TR/2001/REC-SVG-20010904/DTD/svg10.dtd">
<svg version="1.0" xmlns="http://www.w3.org/2000/svg"
 width="1314.000000pt" height="1461.000000pt" viewBox="0 0 1314.000000 1461.000000"
 preserveAspectRatio="xMidYMid meet">

<g transform="translate(0.000000,1461.000000) scale(0.100000,-0.100000)"
fill="#000000" stroke="none">
<path d="M5161 13829 c-1 -24 -6 -27 -106 -48 -242 -50 -537 -171 -730 -298
-520 -343 -797 -885 -841 -1645 l-6 -107 -31 -5 c-18 -3 -63 -8 -101 -12 -37
-3 -118 -16 -180 -29 -885 -184 -1878 -1024 -2254 -1905 -125 -293 -182 -543
-182 -805 0 -514 236 -957 702 -1317 474 -367 1201 -637 2138 -794 91 -16 167
-32 168 -36 2 -4 8 -5 13 -2 6 3 57 0 114 -7 l105 -13 0 -100 0 -101 -80 3
c-68 3 -80 1 -80 -12 0 -13 14 -16 80 -16 l80 0 -6 -152 c-3 -84 -7 -166 -9
-183 l-5 -30 -70 3 c-46 2 -70 0 -70 -7 0 -7 27 -11 71 -11 l72 0 -7 -132
c-10 -216 -47 -772 -51 -785 -3 -8 -23 -14 -47 -15 l-43 -1 44 -6 45 -6 -2
-60 c-2 -33 -5 -79 -8 -102 -6 -40 -8 -42 -43 -46 l-36 -4 39 -1 38 -2 -6
-107 c-20 -330 -16 -303 -42 -303 -13 0 -24 -4 -24 -10 0 -5 12 -10 26 -10
l26 0 -6 -88 c-3 -48 -6 -136 -6 -195 0 -100 -2 -109 -20 -114 -26 -7 -26 -19
1 -26 18 -5 20 -12 17 -48 -3 -41 -1 -44 37 -66 67 -38 333 -153 464 -200 244
-88 516 -157 763 -193 79 -12 144 -23 147 -26 2 -2 -352 -4 -787 -4 l-792 0 0
-25 0 -25 -1295 0 -1295 0 0 -1315 0 -1315 1295 0 c1144 0 1295 -2 1295 -15 0
-13 211 -15 1840 -15 1629 0 1840 -2 1840 -15 0 -13 211 -15 1840 -15 l1840 0
0 25 0 25 545 0 545 0 0 1023 c0 929 1 1029 17 1095 15 64 15 81 3 140 -7 37
-15 133 -17 215 l-4 147 -545 0 -544 0 0 35 0 35 -2030 0 -2030 0 0 65 c0 36
3 65 8 65 17 0 306 64 567 125 305 72 750 171 830 186 204 36 343 59 357 59
15 0 18 -15 21 -132 l3 -133 2 133 c1 96 5 134 15 136 6 3 31 7 54 10 l42 6 4
-142 3 -143 2 141 2 142 35 4 34 4 4 -146 3 -145 2 146 2 146 77 7 c42 3 89 6
105 6 l28 0 0 -150 0 -150 25 0 25 0 0 144 c0 142 0 145 -22 149 -13 2 18 5
67 6 l90 1 -3 -150 c-2 -100 0 -150 7 -150 7 0 11 52 11 150 l0 150 43 0 c39
-1 205 -19 320 -36 43 -6 47 -5 47 14 0 11 8 23 18 25 16 4 16 5 0 6 -10 0
-18 9 -18 19 0 9 5 98 10 197 6 99 10 342 10 540 0 324 -5 460 -26 778 l-7 97
24 1 24 1 -25 7 c-25 7 -25 9 -52 256 -36 337 -39 305 25 307 l52 1 -55 6 -55
6 -6 60 c-4 33 -9 85 -13 115 -13 120 -45 480 -51 565 -3 50 -8 109 -11 133
l-5 43 73 31 c807 353 1593 974 2128 1682 653 867 866 1786 594 2566 -100 290
-212 475 -395 659 -265 264 -653 452 -1043 505 l-91 12 -5 334 -5 335 -3 -330
-2 -330 -220 0 -220 0 -2 330 -3 330 -5 -335 -5 -334 -90 -12 c-462 -62 -935
-281 -1333 -617 -51 -44 -95 -77 -96 -75 -1 1 -13 32 -25 68 -32 90 -127 271
-191 360 -339 478 -938 878 -1686 1125 -156 52 -448 126 -589 150 -55 9 -107
18 -115 20 -8 2 -46 6 -83 10 -45 5 -71 13 -74 22 -4 11 -8 12 -13 2 -6 -9
-34 -9 -128 0 -153 14 -413 14 -561 0 -88 -9 -116 -9 -119 0 -3 9 -7 8 -16 -3
-6 -8 -38 -17 -73 -21 -59 -6 -62 -6 -66 17 -4 22 -4 22 -6 -3z m989 -414
c252 -35 480 -89 740 -175 843 -279 1417 -774 1688 -1456 94 -235 156 -522
169 -777 3 -70 9 -130 13 -132 3 -2 19 42 35 98 83 303 239 609 400 785 216
237 595 440 1015 546 313 78 614 93 864 41 689 -142 1090 -772 1015 -1595 -45
-500 -263 -1034 -636 -1555 -366 -513 -892 -975 -1588 -1397 -239 -144 -292
-171 -328 -165 -18 4 -95 20 -172 36 -109 23 -368 61 -417 61 -11 0 -10 190 2
393 34 577 139 1140 299 1611 17 49 29 91 27 93 -9 9 -126 -193 -216 -372
-230 -456 -416 -1056 -503 -1625 l-13 -85 -89 -8 c-440 -37 -570 -54 -890
-113 -77 -14 -154 -28 -171 -31 l-30 -5 -22 98 c-12 55 -69 313 -126 574 -145
658 -235 1053 -243 1059 -3 3 -3 -43 1 -104 26 -458 57 -1705 42 -1705 -3 0
-139 -32 -303 -71 -669 -158 -982 -225 -1296 -279 -163 -28 -227 -35 -227 -27
0 2 -9 53 -20 114 -56 310 -198 664 -380 943 -70 108 -122 181 -126 178 -2 -2
14 -46 36 -96 88 -204 166 -469 205 -697 20 -118 64 -468 59 -474 -21 -23
-632 -32 -854 -12 -736 67 -1455 253 -1969 510 -572 286 -889 639 -988 1101
-29 135 -24 378 10 542 77 365 259 732 531 1072 105 131 324 350 454 454 270
216 628 416 870 488 127 38 288 44 402 15 218 -54 408 -179 929 -608 121 -100
221 -180 221 -178 0 3 -41 56 -91 118 -538 663 -685 1371 -401 1933 253 501
812 831 1516 894 127 12 419 4 556 -15z m2724 -6160 c149 -18 306 -48 396 -78
l65 -22 13 -105 c7 -58 31 -238 53 -400 121 -879 136 -1014 164 -1400 8 -118
18 -341 22 -496 l6 -281 -84 13 c-217 36 -555 35 -829 -1 -278 -36 -486 -79
-1055 -215 -679 -163 -936 -215 -1250 -254 -388 -49 -829 -51 -1165 -5 -297
40 -676 142 -935 251 l-80 34 2 214 c2 246 10 403 58 1115 33 493 48 758 61
1085 l6 155 366 0 c530 1 795 29 1847 195 1174 185 1539 224 2006 214 114 -2
263 -11 333 -19z m-1904 -3545 l0 -60 -90 0 -90 0 -2 43 -1 42 -4 -42 -4 -43
-60 0 -59 0 0 34 0 34 98 17 c53 9 113 21 132 25 78 18 80 17 80 -50z m-320
-25 l0 -35 -115 0 c-85 0 -115 3 -116 13 0 10 -2 10 -6 0 -3 -9 -33 -13 -101
-13 -52 0 -93 2 -91 4 2 3 79 14 169 25 135 17 244 34 258 40 1 1 2 -15 2 -34z
m-1347 -32 c-7 -2 -19 -2 -25 0 -7 3 -2 5 12 5 14 0 19 -2 13 -5z m900 0 c-7
-2 -19 -2 -25 0 -7 3 -2 5 12 5 14 0 19 -2 13 -5z m2682 -402 c160 -42 318
-134 431 -253 162 -168 231 -348 241 -628 12 -324 -78 -569 -287 -781 -119
-121 -270 -208 -445 -255 -104 -28 -349 -26 -460 5 -170 46 -328 144 -466 288
-194 203 -272 537 -204 868 44 213 176 431 340 564 124 101 264 169 415 202
113 25 318 20 435 -10z m1915 17 c-1 -33 -16 -38 -40 -13 l-23 25 31 0 c19 0
32 -5 32 -12z m-7570 -38 c0 -5 -2 -10 -4 -10 -3 0 -8 5 -11 10 -3 6 -1 10 4
10 6 0 11 -4 11 -10z m631 -4 c163 -35 227 -102 313 -328 96 -253 500 -1237
528 -1288 17 -30 42 -69 55 -87 29 -38 97 -73 140 -73 65 0 77 -17 42 -59
l-20 -24 -352 -2 c-193 -1 -364 -5 -379 -9 -27 -8 -28 -7 -28 32 0 22 6 44 13
50 6 5 44 12 82 14 169 12 178 59 66 341 -28 69 -48 133 -45 141 3 8 -5 21
-18 30 -20 14 -68 16 -374 16 -334 0 -353 -1 -376 -20 -44 -34 -156 -355 -147
-419 3 -13 21 -36 45 -53 39 -28 50 -30 149 -36 119 -6 130 -13 95 -60 l-22
-30 -232 5 c-127 3 -276 0 -331 -5 -111 -11 -119 -8 -109 43 8 38 19 45 74 45
57 0 125 34 161 80 16 19 160 348 321 730 271 642 293 699 292 750 -1 31 -7
66 -13 79 -18 32 -96 64 -158 65 -53 1 -53 1 -53 33 0 20 7 36 18 42 25 15
186 13 263 -3z m602 -23 c-3 -21 -6 -39 -7 -40 -1 -1 -11 16 -23 38 l-21 39
28 0 c28 0 28 -2 23 -37z m624 21 c43 -9 95 -25 118 -36 101 -51 176 -147 201
-257 32 -137 324 -1055 339 -1063 8 -5 15 -16 15 -23 0 -8 5 -15 10 -15 6 0
10 2 10 5 0 3 81 314 180 691 99 378 180 688 180 690 0 9 160 3 161 -6 1 -5 2
-22 3 -37 3 -35 442 -1284 454 -1292 5 -3 15 -17 21 -29 7 -13 14 -22 17 -20
2 3 81 261 176 574 139 461 171 580 171 628 0 70 -18 91 -89 102 -40 6 -59 4
-104 -7 -21 -6 -26 58 -6 79 13 15 49 17 345 16 182 0 334 -4 337 -7 4 -3 -1
-22 -9 -40 -16 -33 -19 -34 -85 -40 -132 -13 -212 -58 -257 -146 -13 -26 -132
-400 -265 -832 -133 -431 -246 -792 -251 -801 -6 -12 -22 -18 -44 -18 -18 0
-45 -4 -58 -9 l-24 -9 -224 656 c-123 361 -228 677 -235 702 -12 47 -37 61
-56 30 -5 -8 -91 -319 -192 -690 l-183 -675 -49 -5 c-27 -3 -54 -9 -61 -13
-13 -8 -14 -6 -326 978 -194 613 -241 737 -296 791 -38 38 -115 67 -163 62
-39 -4 -49 19 -24 57 15 23 22 25 102 25 47 0 119 -7 161 -16z m680 -68 l-21
-84 -23 51 c-14 28 -33 66 -44 84 l-21 33 65 0 64 0 -20 -84z m4437 59 c89
-24 174 -73 237 -137 31 -32 243 -302 470 -600 227 -299 430 -565 451 -592
l39 -49 -4 574 c-3 514 -5 579 -21 626 -20 60 -45 80 -122 96 -40 8 -62 8 -84
0 -28 -11 -30 -10 -37 15 -3 15 0 36 8 51 l14 25 313 0 c345 1 351 0 312 -54
-16 -23 -29 -30 -54 -30 -53 0 -130 -28 -158 -57 -55 -57 -53 -27 -56 -892 -2
-562 -6 -809 -14 -818 -6 -7 -23 -13 -38 -13 -74 0 -64 -12 -617 727 -290 388
-538 724 -551 746 -27 49 -47 63 -68 47 -12 -11 -14 -103 -14 -629 0 -339 5
-633 9 -655 12 -49 82 -123 131 -136 19 -5 54 -10 77 -10 76 0 88 -13 52 -58
l-20 -26 -287 -2 c-158 -1 -298 -4 -312 -6 -21 -3 -25 1 -28 27 -4 48 10 58
88 66 87 10 129 32 155 84 19 39 20 63 23 718 2 484 0 692 -8 725 -6 26 -14
59 -17 75 -11 56 -96 100 -195 101 -47 1 -48 2 -48 32 0 54 10 57 170 51 84
-3 170 -12 204 -22z m-7889 1 c270 -5 385 -34 537 -133 108 -71 150 -135 167
-257 14 -102 14 -157 -3 -238 -37 -174 -155 -313 -341 -403 -116 -56 -194 -75
-333 -82 -85 -4 -140 -1 -223 13 -110 18 -111 18 -126 -1 -12 -17 -14 -64 -11
-270 3 -274 3 -270 68 -336 40 -41 90 -59 161 -59 62 0 75 -17 45 -55 l-24
-30 -363 0 c-200 0 -376 -4 -391 -9 -27 -8 -28 -7 -28 32 0 22 6 44 13 49 6 6
42 13 79 16 83 6 126 30 153 82 19 39 20 63 23 710 3 602 1 678 -14 745 -18
80 -33 104 -76 126 -38 20 -130 29 -156 15 -21 -11 -22 -10 -22 28 0 69 -9 68
346 64 176 -2 409 -5 519 -7z m2398 -411 c60 -12 65 -16 86 -68 26 -66 312
-969 308 -973 -1 -2 -21 2 -44 8 -40 10 -44 14 -72 82 -16 39 -110 271 -209
516 -100 245 -188 462 -196 482 l-16 37 56 -39 c30 -21 70 -42 87 -45z m2712
-1090 c45 -120 143 -274 250 -393 l47 -52 -116 0 c-71 0 -116 4 -116 10 0 6
-63 10 -170 10 -93 0 -170 3 -170 6 0 5 107 359 197 649 4 14 14 -9 29 -70 12
-49 34 -121 49 -160z m-4471 134 c-22 -58 -22 -58 -88 -75 -32 -8 -79 -30
-105 -49 -56 -41 -117 -126 -126 -177 -9 -48 -21 -48 -30 -1 -7 38 -62 123
-100 155 -24 20 -31 17 134 57 115 28 254 84 306 124 11 8 21 14 23 12 2 -1
-5 -22 -14 -46z m7666 -70 c0 -5 -4 -9 -10 -9 -5 0 -10 7 -10 16 0 8 5 12 10
9 6 -3 10 -10 10 -16z m-4354 -471 c5 -16 -2 -18 -65 -18 -39 0 -71 3 -71 8 0
8 49 190 57 212 4 12 39 -76 79 -202z m4657 -36 c-41 -2 -77 -2 -78 0 -2 2 2
29 10 60 7 31 12 58 10 60 -1 2 -6 21 -9 43 -7 38 -5 36 68 -60 l75 -100 -76
-3z"/>
<path d="M8510 3189 c-190 -32 -366 -201 -446 -430 -104 -296 -94 -721 21
-954 134 -271 312 -405 540 -405 372 0 607 348 608 900 0 245 -41 417 -146
609 -123 224 -324 321 -577 280z m198 -403 c59 -31 112 -113 147 -226 22 -74
31 -307 16 -434 -18 -153 -85 -304 -154 -346 -47 -29 -144 -28 -183 2 -43 34
-52 46 -95 135 -51 105 -63 194 -56 407 6 192 14 235 70 346 52 106 84 130
169 130 32 0 71 -6 86 -14z"/>
<path d="M3868 2836 c-16 -15 -308 -717 -308 -739 0 -35 22 -37 337 -35 l309
3 -143 360 c-78 198 -142 372 -142 386 -1 15 -8 30 -17 33 -21 8 -21 8 -36 -8z"/>
<path d="M2105 3129 c-44 -11 -79 -39 -103 -84 -15 -26 -17 -79 -20 -403 -4
-418 -6 -401 67 -422 120 -34 314 -18 426 35 80 38 168 124 205 198 39 82 55
193 40 289 -15 100 -65 211 -117 264 -47 46 -138 94 -213 112 -66 16 -239 23
-285 11z"/>
<path d="M12410 8415 l-95 -95 98 0 97 0 0 95 c0 52 -1 95 -3 95 -1 0 -45 -43
-97 -95z"/>
<path d="M3833 6755 c0 -33 2 -45 4 -27 2 18 2 45 0 60 -2 15 -4 0 -4 -33z"/>
<path d="M9717 6753 c18 -2 50 -2 70 0 21 2 7 4 -32 4 -38 0 -55 -2 -38 -4z"/>
<path d="M3838 5953 c17 -2 47 -2 65 0 17 2 3 4 -33 4 -36 0 -50 -2 -32 -4z"/>
<path d="M3810 5810 c0 -5 25 -10 55 -10 30 0 55 5 55 10 0 6 -25 10 -55 10
-30 0 -55 -4 -55 -10z"/>
<path d="M3833 5593 c15 -2 39 -2 55 0 15 2 2 4 -28 4 -30 0 -43 -2 -27 -4z"/>
<path d="M3823 4903 c9 -2 23 -2 30 0 6 3 -1 5 -18 5 -16 0 -22 -2 -12 -5z"/>
<path d="M9734 4015 c0 -71 1 -99 3 -62 2 37 2 96 0 130 -2 34 -3 4 -3 -68z"/>
</g>
</svg>
